<svg width="100" height="100" viewBox="0 0 100 100" fill="none" xmlns="http://www.w3.org/2000/svg">
<rect width="100" height="100" fill="#D9D9D9"/>
<path d="M43.1591 58.2727C41.9773 58.2727 40.9403 57.9915 40.0483 57.429C39.1619 56.8665 38.4688 56.0795 37.9688 55.0682C37.4744 54.0568 37.2273 52.875 37.2273 51.5227C37.2273 50.1591 37.4744 48.9687 37.9688 47.9517C38.4688 46.9347 39.1619 46.1449 40.0483 45.5824C40.9403 45.0199 41.9773 44.7386 43.1591 44.7386C44.3409 44.7386 45.375 45.0199 46.2614 45.5824C47.1534 46.1449 47.8466 46.9347 48.3409 47.9517C48.8409 48.9687 49.0909 50.1591 49.0909 51.5227C49.0909 52.875 48.8409 54.0568 48.3409 55.0682C47.8466 56.0795 47.1534 56.8665 46.2614 57.429C45.375 57.9915 44.3409 58.2727 43.1591 58.2727ZM43.1591 56.4659C44.0568 56.4659 44.7955 56.2358 45.375 55.7756C45.9545 55.3153 46.3835 54.7102 46.6619 53.9602C46.9403 53.2102 47.0795 52.3977 47.0795 51.5227C47.0795 50.6477 46.9403 49.8324 46.6619 49.0767C46.3835 48.321 45.9545 47.7102 45.375 47.2443C44.7955 46.7784 44.0568 46.5455 43.1591 46.5455C42.2614 46.5455 41.5227 46.7784 40.9432 47.2443C40.3636 47.7102 39.9347 48.321 39.6562 49.0767C39.3778 49.8324 39.2386 50.6477 39.2386 51.5227C39.2386 52.3977 39.3778 53.2102 39.6562 53.9602C39.9347 54.7102 40.3636 55.3153 40.9432 55.7756C41.5227 56.2358 42.2614 56.4659 43.1591 56.4659ZM54.0362 53.2273L54.0021 50.7386H54.4112L60.1385 44.9091H62.6271L56.5249 51.0795H56.3544L54.0362 53.2273ZM52.1612 58V40.5455H54.1726V58H52.1612ZM60.4794 58L55.3658 51.5227L56.7976 50.125L63.0362 58H60.4794Z" fill="black"/>
</svg>
